<mxfile host="app.diagrams.net" modified="2022-09-05T08:10:17.719Z" agent="5.0 (Windows NT 10.0; Win64; x64) AppleWebKit/537.36 (KHTML, like Gecko) Chrome/104.0.5112.102 Safari/537.36 Edg/104.0.1293.70" etag="pbgn3z1oY4IrrBucIUuh" version="20.0.4" type="github">
  <diagram id="g97v5N0pnuBWZilpk46l" name="第 1 页">
    <mxGraphModel dx="1422" dy="804" grid="1" gridSize="10" guides="1" tooltips="1" connect="1" arrows="1" fold="1" page="1" pageScale="1" pageWidth="827" pageHeight="1169" math="0" shadow="0">
      <root>
        <mxCell id="0" />
        <mxCell id="1" parent="0" />
        <mxCell id="y4dW6PU2_FcqgjxLJFtc-2" value="" style="shape=table;startSize=0;container=1;collapsible=0;childLayout=tableLayout;fontSize=40;" vertex="1" parent="1">
          <mxGeometry x="110" y="190" width="570" height="60" as="geometry" />
        </mxCell>
        <mxCell id="y4dW6PU2_FcqgjxLJFtc-3" value="" style="shape=tableRow;horizontal=0;startSize=0;swimlaneHead=0;swimlaneBody=0;top=0;left=0;bottom=0;right=0;collapsible=0;dropTarget=0;fillColor=none;points=[[0,0.5],[1,0.5]];portConstraint=eastwest;fontSize=40;" vertex="1" parent="y4dW6PU2_FcqgjxLJFtc-2">
          <mxGeometry width="570" height="60" as="geometry" />
        </mxCell>
        <mxCell id="y4dW6PU2_FcqgjxLJFtc-4" value="B" style="shape=partialRectangle;html=1;whiteSpace=wrap;connectable=0;overflow=hidden;fillColor=none;top=0;left=0;bottom=0;right=0;pointerEvents=1;fontSize=40;" vertex="1" parent="y4dW6PU2_FcqgjxLJFtc-3">
          <mxGeometry width="65" height="60" as="geometry">
            <mxRectangle width="65" height="60" as="alternateBounds" />
          </mxGeometry>
        </mxCell>
        <mxCell id="y4dW6PU2_FcqgjxLJFtc-5" value="C" style="shape=partialRectangle;html=1;whiteSpace=wrap;connectable=0;overflow=hidden;fillColor=none;top=0;left=0;bottom=0;right=0;pointerEvents=1;fontSize=40;" vertex="1" parent="y4dW6PU2_FcqgjxLJFtc-3">
          <mxGeometry x="65" width="62" height="60" as="geometry">
            <mxRectangle width="62" height="60" as="alternateBounds" />
          </mxGeometry>
        </mxCell>
        <mxCell id="y4dW6PU2_FcqgjxLJFtc-6" value="A" style="shape=partialRectangle;html=1;whiteSpace=wrap;connectable=0;overflow=hidden;fillColor=none;top=0;left=0;bottom=0;right=0;pointerEvents=1;fontSize=40;" vertex="1" parent="y4dW6PU2_FcqgjxLJFtc-3">
          <mxGeometry x="127" width="63" height="60" as="geometry">
            <mxRectangle width="63" height="60" as="alternateBounds" />
          </mxGeometry>
        </mxCell>
        <mxCell id="y4dW6PU2_FcqgjxLJFtc-7" value="D" style="shape=partialRectangle;html=1;whiteSpace=wrap;connectable=0;overflow=hidden;fillColor=#f8cecc;top=0;left=0;bottom=0;right=0;pointerEvents=1;strokeColor=#b85450;fontSize=40;" vertex="1" parent="y4dW6PU2_FcqgjxLJFtc-3">
          <mxGeometry x="190" width="63" height="60" as="geometry">
            <mxRectangle width="63" height="60" as="alternateBounds" />
          </mxGeometry>
        </mxCell>
        <mxCell id="y4dW6PU2_FcqgjxLJFtc-8" value="E" style="shape=partialRectangle;html=1;whiteSpace=wrap;connectable=0;overflow=hidden;fillColor=#f8cecc;top=0;left=0;bottom=0;right=0;pointerEvents=1;strokeColor=#b85450;fontSize=40;" vertex="1" parent="y4dW6PU2_FcqgjxLJFtc-3">
          <mxGeometry x="253" width="64" height="60" as="geometry">
            <mxRectangle width="64" height="60" as="alternateBounds" />
          </mxGeometry>
        </mxCell>
        <mxCell id="y4dW6PU2_FcqgjxLJFtc-9" value="A" style="shape=partialRectangle;html=1;whiteSpace=wrap;connectable=0;overflow=hidden;fillColor=#f8cecc;top=0;left=0;bottom=0;right=0;pointerEvents=1;strokeColor=#b85450;fontSize=40;" vertex="1" parent="y4dW6PU2_FcqgjxLJFtc-3">
          <mxGeometry x="317" width="63" height="60" as="geometry">
            <mxRectangle width="63" height="60" as="alternateBounds" />
          </mxGeometry>
        </mxCell>
        <mxCell id="y4dW6PU2_FcqgjxLJFtc-10" value="F" style="shape=partialRectangle;html=1;whiteSpace=wrap;connectable=0;overflow=hidden;fillColor=#d5e8d4;top=0;left=0;bottom=0;right=0;pointerEvents=1;strokeColor=#82b366;fontSize=40;" vertex="1" parent="y4dW6PU2_FcqgjxLJFtc-3">
          <mxGeometry x="380" width="63" height="60" as="geometry">
            <mxRectangle width="63" height="60" as="alternateBounds" />
          </mxGeometry>
        </mxCell>
        <mxCell id="y4dW6PU2_FcqgjxLJFtc-11" value="G" style="shape=partialRectangle;html=1;whiteSpace=wrap;connectable=0;overflow=hidden;fillColor=#d5e8d4;top=0;left=0;bottom=0;right=0;pointerEvents=1;strokeColor=#82b366;fontSize=40;" vertex="1" parent="y4dW6PU2_FcqgjxLJFtc-3">
          <mxGeometry x="443" width="62" height="60" as="geometry">
            <mxRectangle width="62" height="60" as="alternateBounds" />
          </mxGeometry>
        </mxCell>
        <mxCell id="y4dW6PU2_FcqgjxLJFtc-12" value="A" style="shape=partialRectangle;html=1;whiteSpace=wrap;connectable=0;overflow=hidden;fillColor=#d5e8d4;top=0;left=0;bottom=0;right=0;pointerEvents=1;strokeColor=#82b366;fontSize=40;" vertex="1" parent="y4dW6PU2_FcqgjxLJFtc-3">
          <mxGeometry x="505" width="65" height="60" as="geometry">
            <mxRectangle width="65" height="60" as="alternateBounds" />
          </mxGeometry>
        </mxCell>
      </root>
    </mxGraphModel>
  </diagram>
</mxfile>
